<?xml version="1.0" encoding="UTF-8"?>
<!DOCTYPE svg PUBLIC "-//W3C//DTD SVG 1.1//EN" "http://www.w3.org/Graphics/SVG/1.1/DTD/svg11.dtd">
<!-- Creator: CorelDRAW 2017 -->
<svg xmlns="http://www.w3.org/2000/svg" xml:space="preserve" width="798px" height="120px" version="1.1" style="shape-rendering:geometricPrecision; text-rendering:geometricPrecision; image-rendering:optimizeQuality; fill-rule:evenodd; clip-rule:evenodd"
viewBox="0 0 2268.23 341.96"
 xmlns:xlink="http://www.w3.org/1999/xlink">
 <defs>
  <style type="text/css">
   <![CDATA[
    .fil0 {fill:#FFFFFF;fill-rule:nonzero}
    .fil1 {fill:#E99115;fill-rule:nonzero}
   ]]>
  </style>
 </defs>
 <g id="Слой_x0020_1">
  <metadata id="CorelCorpID_0Corel-Layer"/>
  <g id="_2272455006832">
   <path class="fil0" d="M1894.22 150.18c0.82,-0.47 2.18,-1.13 2.99,-1.58 13.39,-7.32 26.94,-11.69 39.21,-11.69 23.21,0 36.66,17.16 36.66,46.4l0 128.09c0,13 8.83,23.21 25.07,23.21 15.78,0 25.06,-10.21 25.06,-23.21l0 -128.09c0,-53.37 -26.92,-89.1 -80.76,-89.1 -20.42,0 -43.15,6.04 -64.04,20.42 -18.94,-24.65 -31.4,-2.44 -34.24,6.66 -0.66,15.73 -0.1,31.47 -0.1,41.14l0 148.97c0,13 8.35,23.21 25.06,23.21 16.7,0 25.06,-10.21 25.06,-23.21l0 -142.42c0,-6.5 0.05,-11.9 0.03,-18.8z"/>
   <path class="fil0" d="M1709.48 239.93c58.94,0 84.47,-25.99 84.47,-69.61 0,-46.42 -27.85,-77.04 -84.01,-77.04 -59.87,0 -91.89,34.81 -91.89,80.29l0 82.14c0,45.02 32.49,79.36 89.57,79.36 27.39,0 82.15,-7.89 82.15,-35.73 0,-9.28 -6.96,-20.88 -22.74,-20.88 -5.57,0 -8.82,1.39 -10.22,2.31 -15.31,6.97 -27.84,11.6 -45.01,11.6 -29.23,0 -43.62,-13.45 -43.62,-34.34l0 -21.35c14.85,2.33 28.3,3.25 41.3,3.25zm34.81 -71c0,19.49 -8.82,32.02 -35.28,32.02 -6.95,0 -25.05,-0.93 -40.83,-2.79l0 -27.38c0,-22.27 14.85,-36.2 40.83,-36.2 22.75,0 35.28,9.75 35.28,34.35z"/>
   <path class="fil0" d="M1566.54 25.05c0,-13.91 -11.61,-25.05 -26.46,-25.05 -10.67,0 -20.42,3.71 -25.98,14.39l-86.33 179.6 -86.78 -179.14c-5.12,-9.75 -13.93,-14.85 -26,-14.85 -15.31,0 -26.45,10.67 -26.45,25.05l0 287.28c0,12.53 10.67,23.67 24.6,23.67 14.38,0 26.45,-11.14 26.45,-23.67l0 -193.06 63.59 131.8c5.1,9.75 13.92,14.39 24.13,14.39 10.2,0 19.49,-4.64 24.13,-14.39l64.04 -131.8 0 193.06c0,12.53 12.07,23.67 26,23.67 13.45,0 25.06,-11.14 25.06,-23.67l0 -287.28z"/>
   <path class="fil1" d="M97.46 221.29c67.76,0 111.38,-37.59 111.38,-104.88 0,-55.23 -29.24,-106.28 -111.38,-106.28l-68.22 0c-15.78,0 -29.24,12.99 -29.24,27.84l0 278.93c0,13.46 12.06,25.06 25.52,25.06 13.93,0 25.53,-12.07 25.53,-25.06l0 -95.61 46.41 0zm-46.41 -163.36l46.41 0c49.19,0 60.33,29.24 60.33,58.01 0,39.45 -20.88,58.02 -60.33,58.02l-46.41 0 0 -116.03zm287.27 283.1c61.26,0 93.75,-37.13 93.75,-84.47l0 -73.32c0,-47.81 -32.49,-84.47 -93.75,-84.47 -61.26,0 -93.74,36.66 -93.74,84.47l0 73.32c0,47.34 32.48,84.47 93.74,84.47zm0 -44.09c-28.77,0 -43.62,-15.31 -43.62,-40.38l0 -73.79c0,-24.59 14.85,-39.91 43.62,-39.91 28.78,0 43.63,15.32 43.63,39.91l0 73.79c0,25.07 -14.85,40.38 -43.63,40.38zm135.52 -43.24c0,48.81 27.38,87.33 89.11,87.33 25.06,0 72.4,-6.96 72.4,-34.34 0,-9.75 -6.5,-19.96 -22.75,-19.96 -4.63,0 -7.42,0.93 -11.13,2.32 -10.21,4.64 -19.03,9.28 -34.35,9.28 -31.09,0 -43.16,-16.7 -43.16,-44.71l0 -66.52c0,-27.99 12.07,-44.24 43.16,-44.24 15.32,0 24.14,4.64 34.35,9.28 4.64,1.39 7.89,1.86 11.6,1.86 15.78,0 22.28,-9.75 22.28,-19.49 0,-27.85 -47.34,-34.35 -71.94,-34.35 -62.19,0 -89.57,38.06 -89.57,86.87l0 66.67zm253.86 -228.72c0,-13 -11.14,-23.2 -25.06,-23.2 -20.89,0 -25.06,16.7 -25.06,34.8l0 280.78c0,13.46 10.67,23.21 25.06,23.21 19.49,0 25.06,-16.25 25.06,-33.42l0 -63.58c3.71,-3.25 6.96,-7.42 10.67,-10.67l61.26 88.17c9.75,14.39 12.54,19.5 26.92,19.5 13,0 23.21,-7.43 24.13,-19.96 0,-4.18 -1.39,-10.21 -4.17,-13.92 -24.13,-34.35 -48.73,-68.69 -73.33,-103.03l62.65 -64.98c4.18,-4.17 6.5,-9.74 6.5,-15.78 0,-12.53 -10.67,-21.81 -24.13,-21.81 -10.21,0 -17.64,6.5 -23.67,12.99l-66.83 71.01 0 -160.11zm242.72 220.91c58.95,0 84.47,-25.99 84.47,-69.62 0,-46.41 -27.85,-77.04 -84,-77.04 -59.87,0 -91.89,34.81 -91.89,80.29l0 82.15c0,45.02 32.48,79.36 89.57,79.36 27.38,0 82.14,-7.89 82.14,-35.74 0,-9.28 -6.96,-20.88 -22.74,-20.88 -5.57,0 -8.82,1.39 -10.21,2.32 -15.31,6.96 -27.84,11.6 -45.02,11.6 -29.23,0 -43.62,-13.46 -43.62,-34.34l0 -21.35c14.85,2.32 28.31,3.25 41.3,3.25zm34.81 -71.01c0,19.49 -8.82,32.02 -35.27,32.02 -6.96,0 -25.06,-0.92 -40.84,-2.78l0 -27.38c0,-22.28 14.85,-36.2 40.84,-36.2 22.74,0 35.27,9.75 35.27,34.34zm94.21 67.3c0,63.58 17.17,96.99 85.4,96.99 18.1,0 35.73,-2.78 35.73,-24.13 0,-15.78 -11.14,-20.88 -31.09,-20.88 -1.86,0 -5.11,0.46 -8.36,0.46 -27.84,0 -31.55,-14.85 -31.55,-55.69l0 -81.22 41.3 0c12.99,0 23.67,-9.75 23.67,-22.28 0,-12.99 -10.68,-22.73 -23.67,-22.73l-41.3 0 0 -57.55c0,-12.53 -9.29,-23.21 -25.07,-23.21 -16.24,0 -25.06,10.21 -25.06,23.21l0 187.03z"/>
   <path class="fil0" d="M1894.3 124.67l0 -8.14c0,-12.52 -9.29,-23.2 -25.07,-23.2 -16.24,0 -25.06,10.21 -25.06,23.2l0 8.14 50.13 0z"/>
   <path class="fil0" d="M2220.43 319.3c6.04,9.28 13.93,15.87 24.13,15.87 12.07,0 23.67,-8.9 23.67,-22.37 0,-5.56 -2.31,-9.27 -5.1,-12.53 -4.64,-6.49 -8.35,-8.35 -8.35,-24.67l0 -155.7c0,-13 -8.35,-22.82 -25.06,-22.82 -16.71,0 -25.07,9.82 -25.07,22.82l0 151.06c0,3.25 0.47,6.96 0.93,11.14 -14.84,8.04 -29.7,12.68 -43.63,12.68 -24.13,0 -36.19,-16.7 -36.19,-46.48l0 -128.4c0,-13 -9.28,-22.82 -25.06,-22.82 -16.24,0 -25.06,9.82 -25.06,22.82l0 128.4c0,53.45 27.37,89.64 79.82,89.64 21.35,0 44.09,-5.1 64.97,-18.55l0 -0.09z"/>
  </g>
 </g>
</svg>
