<?xml version="1.0" encoding="utf-8"?>
<!-- Generator: Adobe Illustrator 21.0.2, SVG Export Plug-In . SVG Version: 6.00 Build 0)  -->
<svg version="1.1" id="Layer_1" xmlns="http://www.w3.org/2000/svg" xmlns:xlink="http://www.w3.org/1999/xlink" x="0px" y="0px"
	 width="244.4px" height="38.2px" viewBox="0 0 244.4 38.2" style="enable-background:new 0 0 244.4 38.2;" xml:space="preserve">
<style type="text/css">
	.st0{fill:#FFFFFF;}
</style>
<g>
	<path class="st0" d="M16.9,11.2c0.2,0,0.3,0.1,0.3,0.3v1.1c0,0.2-0.1,0.3-0.3,0.3h-7c-0.1,0-0.1,0.1-0.1,0.1v5.1
		c0,0.1,0.1,0.1,0.1,0.1h4.9c0.2,0,0.3,0.1,0.3,0.3v1c0,0.2-0.1,0.3-0.3,0.3H9.9c-0.1,0-0.1,0.1-0.1,0.1v5.2c0,0.2-0.1,0.3-0.3,0.3
		H8.2c-0.2,0-0.3-0.1-0.3-0.3V11.5c0-0.2,0.1-0.3,0.3-0.3H16.9 M28,23.9c2.8,0,4.5-1.9,4.5-5v-1.2c0-3.1-1.7-5-4.5-5s-4.6,1.9-4.6,5
		v1.2C23.4,22,25.2,23.9,28,23.9 M28,11c3.9,0,6.4,2.6,6.4,6.7v1.2c0,4.1-2.5,6.7-6.4,6.7s-6.4-2.6-6.4-6.7v-1.2
		C21.5,13.7,24,11,28,11 M46.8,23.9c2.8,0,4.5-1.9,4.5-5v-1.2c0-3.1-1.7-5-4.5-5s-4.6,1.9-4.6,5v1.2C42.2,22,44,23.9,46.8,23.9
		 M46.8,11c3.9,0,6.4,2.6,6.4,6.7v1.2c0,4.1-2.5,6.7-6.4,6.7s-6.4-2.6-6.4-6.7v-1.2C40.3,13.7,42.9,11,46.8,11 M69.2,17.7
		c0-3-1.7-4.8-4.6-4.8h-3c-0.1,0-0.1,0.1-0.1,0.1v10.7c0,0.1,0.1,0.1,0.1,0.1h3c2.9,0,4.6-1.8,4.6-4.8V17.7 M64.6,11.2
		c3.9,0,6.4,2.5,6.4,6.5V19c0,3.9-2.5,6.4-6.4,6.4h-4.7c-0.2,0-0.3-0.1-0.3-0.3V11.5c0-0.2,0.1-0.3,0.3-0.3H64.6 M87.1,11.2h-1.3
		c-0.2,0-0.3,0.1-0.3,0.3v13.6c0,0.2,0.1,0.3,0.3,0.3h1.3c0.2,0,0.3-0.1,0.3-0.3V11.5C87.4,11.4,87.2,11.2,87.1,11.2 M105.9,11.2
		h-1.3c-0.2,0-0.3,0.1-0.3,0.3v9.8l0,0c0,0,0,0-0.1,0l-9.1-10.1c-0.1-0.1-0.2-0.1-0.3-0.1h-0.1c-0.2,0-0.3,0.1-0.3,0.3V25
		c0,0.2,0.1,0.3,0.3,0.3H96c0.2,0,0.3-0.1,0.3-0.3v-9.9c0,0,0-0.1,0.1-0.1c0,0,0,0,0.1,0l9,10.1c0.1,0.1,0.2,0.1,0.3,0.1h0.1
		c0.2,0,0.3-0.1,0.3-0.3V11.5C106.2,11.4,106,11.2,105.9,11.2 M124.7,11.2h-1.3c-0.2,0-0.3,0.1-0.3,0.3v9.8l0,0c0,0,0,0-0.1,0
		l-9.1-10.1c-0.1-0.1-0.2-0.1-0.3-0.1h-0.1c-0.2,0-0.3,0.1-0.3,0.3V25c0,0.2,0.1,0.3,0.3,0.3h1.3c0.2,0,0.3-0.1,0.3-0.3v-9.9
		c0,0,0-0.1,0.1-0.1c0,0,0,0,0.1,0l9,10.1c0.1,0.1,0.2,0.1,0.3,0.1h0.1c0.2,0,0.3-0.1,0.3-0.3V11.5
		C124.9,11.4,124.8,11.2,124.7,11.2 M137.9,23.9c2.8,0,4.5-1.9,4.5-5v-1.2c0-3.1-1.7-5-4.5-5s-4.6,1.9-4.6,5v1.2
		C133.3,22,135.1,23.9,137.9,23.9 M137.9,11c3.9,0,6.4,2.6,6.4,6.7v1.2c0,4.1-2.5,6.7-6.4,6.7s-6.4-2.6-6.4-6.7v-1.2
		C131.4,13.7,134,11,137.9,11 M161.3,11.2H160c-0.2,0-0.3,0.1-0.4,0.3l-4.2,10.7c0,0,0,0-0.1,0c0,0,0,0-0.1,0l-4.3-10.7
		c-0.1-0.2-0.2-0.3-0.4-0.3h-1.3c-0.1,0-0.2,0-0.2,0.1c-0.1,0.1-0.1,0.2,0,0.3l5.6,13.6c0,0.1,0.2,0.2,0.3,0.2h0.7
		c0.1,0,0.3-0.1,0.3-0.2l5.6-13.6c0-0.1,0-0.2,0-0.3C161.5,11.3,161.4,11.2,161.3,11.2 M171,15C171,15,170.9,14.9,171,15
		c-0.1-0.1-0.1-0.1-0.1,0l-2.5,6v0.1l0,0h5.1c0,0,0,0,0.1,0l0,0L171,15z M177.2,25.1c0,0.1,0,0.2,0,0.3c-0.1,0.1-0.1,0.1-0.2,0.1
		h-1.3c-0.2,0-0.3-0.1-0.4-0.2l-1.1-2.4c0-0.1-0.2-0.2-0.3-0.2h-6c-0.1,0-0.2,0.1-0.3,0.2l-1.1,2.5c-0.1,0.1-0.2,0.2-0.4,0.2h-1.3
		c-0.1,0-0.2-0.1-0.3-0.1c0-0.1-0.1-0.2,0-0.3l5.8-13.6c0-0.1,0.2-0.2,0.3-0.2h0.2c0.1,0,0.3,0.1,0.3,0.2L177.2,25.1z M190.3,11.2
		h-10c-0.2,0-0.3,0.2-0.3,0.3v1.1c0,0.2,0.1,0.3,0.3,0.3h3.9c0.1,0,0.1,0.1,0.1,0.1v12.1c0,0.2,0.1,0.3,0.3,0.3h1.3
		c0.2,0,0.3-0.1,0.3-0.3V13c0-0.1,0.1-0.1,0.1-0.1h3.9c0.2,0,0.3-0.1,0.3-0.3v-1.1C190.6,11.4,190.5,11.2,190.3,11.2 M198,11.2h-1.3
		c-0.2,0-0.3,0.1-0.3,0.3v13.6c0,0.2,0.1,0.3,0.3,0.3h1.3c0.2,0,0.3-0.1,0.3-0.3V11.5C198.3,11.4,198.1,11.2,198,11.2 M211.2,23.9
		c2.8,0,4.5-1.9,4.5-5v-1.2c0-3.1-1.7-5-4.5-5s-4.6,1.9-4.6,5v1.2C206.6,22,208.4,23.9,211.2,23.9 M211.2,11c3.9,0,6.4,2.6,6.4,6.7
		v1.2c0,4.1-2.5,6.7-6.4,6.7s-6.4-2.6-6.4-6.7v-1.2C204.7,13.7,207.3,11,211.2,11 M235.5,11.2h-1.3c-0.2,0-0.3,0.1-0.3,0.3v9.8l0,0
		c0,0,0,0-0.1,0l-9.1-10.1c-0.1-0.1-0.2-0.1-0.3-0.1l0,0c-0.2,0-0.3,0.1-0.3,0.3V25c0,0.2,0.1,0.3,0.3,0.3h1.3
		c0.2,0,0.3-0.1,0.3-0.3v-9.9c0,0,0-0.1,0.1-0.1c0,0,0,0,0.1,0l9,10.1c0.1,0.1,0.2,0.1,0.3,0.1h0.1c0.2,0,0.3-0.1,0.3-0.3V11.5
		C235.8,11.4,235.7,11.2,235.5,11.2 M110,34.9h-1.6c-0.1,0-0.2,0.1-0.2,0.2v0.1c0,0.1,0.1,0.2,0.2,0.2h1.3v1.8
		c-0.2,0.1-0.6,0.3-1.2,0.3c-1.4,0-2.3-1-2.3-2.4v-0.5c0-1.4,0.9-2.4,2.3-2.4c0.5,0,0.9,0.2,1.1,0.3c0.1,0,0.2,0,0.3-0.1l0.1-0.1
		c0,0,0-0.1,0-0.2c0-0.1,0-0.1-0.1-0.1c-0.1-0.1-0.7-0.4-1.4-0.4c-1.7,0-2.9,1.2-2.9,2.9V35c0,1.7,1.2,2.9,2.9,2.9
		c0.5,0,0.9-0.1,1.3-0.3l0.1,0.1c0,0.1,0.1,0.1,0.2,0.1s0.2-0.1,0.2-0.2v-2.7C110.2,35,110.1,34.9,110,34.9 M114.4,34.9h1.8
		c0.8,0,1.3-0.5,1.3-1.2v-0.1c0-0.8-0.5-1.3-1.4-1.3h-1.7C114.4,32.3,114.4,34.9,114.4,34.9z M118.5,37.6c0.1,0,0.2,0.1,0.2,0.2v0.1
		c0,0.1-0.1,0.2-0.2,0.2l0,0c-1.4,0-2.4-1-2.6-2.6h-1.5v2.4c0,0.1-0.1,0.2-0.2,0.2H114c-0.1,0-0.2-0.1-0.2-0.2v-5.8
		c0-0.1,0.1-0.2,0.2-0.2h2.2c1.1,0,1.9,0.7,1.9,1.8v0.1c0,1.1-0.8,1.7-1.7,1.8C116.7,36.8,117.4,37.5,118.5,37.6 M124.1,37.6
		c1.3,0,2.1-0.9,2.1-2.4v-0.5c0-1.5-0.8-2.4-2.1-2.4s-2.1,0.9-2.1,2.4v0.5C122,36.7,122.8,37.6,124.1,37.6 M124.1,31.8
		c1.7,0,2.7,1.1,2.7,2.9v0.5c0,1.8-1,2.9-2.7,2.9s-2.7-1.1-2.7-2.9v-0.5C121.4,32.9,122.5,31.8,124.1,31.8 M134.8,31.9h-0.2
		c-0.1,0-0.2,0.1-0.2,0.2v3.6c0,1.4-0.6,2-1.7,2c-1.2,0-1.7-0.6-1.7-2v-3.6c0-0.1-0.1-0.2-0.2-0.2h-0.2c-0.1,0-0.2,0.1-0.2,0.2v3.6
		c0,1.7,0.8,2.5,2.3,2.5s2.3-0.9,2.3-2.5v-3.6C135,31.9,134.9,31.9,134.8,31.9 M139.2,34.9h1.8c0.8,0,1.3-0.5,1.3-1.2v-0.1
		c0-0.8-0.5-1.3-1.4-1.3h-1.7L139.2,34.9L139.2,34.9z M141.1,31.9c1.1,0,1.9,0.7,1.9,1.8v0.1c0,1.2-1.1,1.8-1.8,1.8h-1.9V38
		c0,0.1-0.1,0.2-0.2,0.2h-0.2c-0.1,0-0.2-0.1-0.2-0.2v-5.8c0-0.1,0.1-0.2,0.2-0.2L141.1,31.9 M114.9,6c0,0.1,0.1,0.2,0.2,0.2h0.2
		c0.1,0,0.2-0.1,0.2-0.2V0.5h1.8c0.1,0,0.2-0.1,0.2-0.2V0.2c0-0.1-0.1-0.2-0.2-0.2h-4.2c-0.1,0-0.2,0.1-0.2,0.2v0.1
		c0,0.1,0.1,0.2,0.2,0.2h1.8V6z M124.6,6c0,0.1,0.1,0.2,0.2,0.2h0.2c0.1,0,0.2-0.1,0.2-0.2V0.2c0-0.1-0.1-0.2-0.2-0.2h-0.2
		c-0.1,0-0.2,0.1-0.2,0.2v2.6h-3.4V0.2c0-0.1-0.1-0.2-0.2-0.2h-0.2c-0.1,0-0.2,0.1-0.2,0.2V6c0,0.1,0.1,0.2,0.2,0.2h0.2
		c0.1,0,0.2-0.1,0.2-0.2V3.3h3.4V6z M132.9,6L132.9,6c0-0.2-0.1-0.3-0.2-0.3h-3.1V3.3h2.2c0.1,0,0.2-0.1,0.2-0.2V3
		c0-0.1-0.1-0.2-0.2-0.2h-2.2V0.5h3.1c0.1,0,0.2-0.1,0.2-0.2V0.2c0-0.1-0.1-0.2-0.2-0.2h-3.5c-0.1,0-0.2,0.1-0.2,0.2V6
		c0,0.1,0.1,0.2,0.2,0.2h3.5C132.8,6.2,132.9,6.1,132.9,6 M3.9,2.2H0.1L0,2.3v33.6c0,0,0,0.1,0.1,0.1h3.8c0,0,0.1,0,0.1-0.1v-0.6
		c0-0.1-0.1-0.1-0.1-0.1H1.3c-0.2,0-0.5-0.2-0.5-0.5V3.4C0.9,3.2,1.1,3,1.3,3h2.5l0.1-0.1L3.9,2.2C3.9,2.3,3.9,2.2,3.9,2.2
		 M244.3,2.2h-3.8l-0.1,0.1v0.6l0.1,0.1h2.5c0.2,0,0.5,0.2,0.5,0.4v31.4c0,0.3-0.2,0.5-0.5,0.5h-2.5c0,0-0.1,0-0.1,0.1V36
		c0,0,0,0.1,0.1,0.1h3.8c0,0,0.1,0,0.1-0.1L244.3,2.2C244.4,2.3,244.3,2.2,244.3,2.2"/>
</g>
</svg>
